<?xml version="1.0" encoding="UTF-8"?>
<!DOCTYPE svg PUBLIC "-//W3C//DTD SVG 1.1//EN" "http://www.w3.org/Graphics/SVG/1.1/DTD/svg11.dtd">
<!-- Creator: CorelDRAW 2021 (64 Bit) -->
<svg xmlns="http://www.w3.org/2000/svg" xml:space="preserve" width="4.3798mm" height="6.1508mm" version="1.1" style="shape-rendering:geometricPrecision; text-rendering:geometricPrecision; image-rendering:optimizeQuality; fill-rule:evenodd; clip-rule:evenodd"
viewBox="0 0 437.98 615.08"
 xmlns:xlink="http://www.w3.org/1999/xlink"
 xmlns:xodm="http://www.corel.com/coreldraw/odm/2003">
 <defs>
  <style type="text/css">
   <![CDATA[
    .fil2 {fill:url(#id0)}
    .fil0 {fill:url(#id1)}
    .fil1 {fill:url(#id2)}
   ]]>
  </style>
  <linearGradient id="id0" gradientUnits="userSpaceOnUse" x1="118.07" y1="170.89" x2="118.07" y2="352.41">
   <stop offset="0" style="stop-opacity:1; stop-color:white"/>
   <stop offset="1" style="stop-opacity:1; stop-color:#4E73DF"/>
  </linearGradient>
  <linearGradient id="id1" gradientUnits="userSpaceOnUse" x1="6.63" y1="180.85" x2="6.63" y2="459.43">
   <stop offset="0" style="stop-opacity:1; stop-color:#6F8CE3"/>
   <stop offset="1" style="stop-opacity:1; stop-color:#4E73DF"/>
  </linearGradient>
  <linearGradient id="id2" gradientUnits="userSpaceOnUse" xlink:href="#id0" x1="116.31" y1="359.7" x2="116.31" y2="155.11">
  </linearGradient>
 </defs>
 <g id="Camada_x0020_1">
  <metadata id="CorelCorpID_0Corel-Layer"/>
  <g id="_2169831345808">
   <path class="fil0" d="M282.92 65.73c0,-16.54 6.41,-31.36 19.23,-44.48 12.82,-11.97 28.38,-17.95 46.69,-17.95 18.32,0 33.88,5.98 46.7,17.95 13.43,12.55 20.14,27.37 20.14,44.48l0 239.47 0 239.47c0,18.25 -6.71,33.07 -20.14,44.48 -12.82,11.97 -28.38,17.96 -46.7,17.96 -18.31,0 -33.87,-5.99 -46.69,-17.96 -12.82,-11.98 -19.23,-26.8 -19.23,-44.48l0 -94.07 0 -94.08c0,-1.14 -0.3,-2.14 -0.92,-3 -0.6,-0.85 -1.22,-1.85 -1.82,-2.99 -1.84,-1.71 -3.97,-2.57 -6.42,-2.57l-65.92 0 -65.92 0c-2.44,0 -4.58,0.86 -6.41,2.57 -1.83,1.71 -2.75,3.71 -2.75,5.99l0 94.08 0 94.07c0,17.68 -6.41,32.5 -19.22,44.48 -12.82,11.97 -28.39,17.96 -46.7,17.96 -18.92,0 -34.79,-5.99 -47.61,-17.96 -12.82,-11.98 -19.23,-26.8 -19.23,-44.48l0 -239.47 0 -239.47c0,-16.54 6.41,-31.36 19.23,-44.48 12.82,-11.97 28.69,-17.95 47.61,-17.95 18.31,0 33.88,5.98 46.7,17.95 12.81,13.12 19.22,27.94 19.22,44.48l0 81.25 0 82.1c0,2.28 0.92,4.28 2.75,5.99 1.83,1.71 3.97,2.56 6.41,2.56l65.92 0 65.92 0c2.45,0 4.58,-0.85 6.42,-2.56 0.6,-1.14 1.22,-2.14 1.82,-2.99 0.62,-0.86 0.92,-1.86 0.92,-3l0 -82.1 0 -81.25z"/>
   <path class="fil1" d="M293.84 71.71c0,-8.53 1.66,-16.63 4.98,-24.3 3.3,-7.65 8.24,-14.83 14.81,-21.56l0.08 -0.06c6.58,-6.16 13.9,-10.79 21.93,-13.87 8.02,-3.08 16.73,-4.63 26.11,-4.63 9.38,0 18.09,1.55 26.11,4.63 8.03,3.08 15.35,7.71 21.94,13.87 6.91,6.45 12.1,13.51 15.56,21.15 3.48,7.68 5.22,15.94 5.22,24.77l0 478.94c0,9.41 -1.74,17.95 -5.22,25.62 -3.47,7.67 -8.68,14.46 -15.61,20.35 -6.58,6.13 -13.87,10.74 -21.89,13.83 -8.02,3.08 -16.73,4.63 -26.11,4.63 -9.38,0 -18.09,-1.55 -26.11,-4.63 -8.03,-3.09 -15.35,-7.72 -21.93,-13.87 -6.61,-6.17 -11.58,-13.09 -14.89,-20.77 -3.32,-7.67 -4.98,-16.06 -4.98,-25.16l0 -188.16c0,-0.38 -0.05,-0.72 -0.14,-1.01 -0.09,-0.3 -0.22,-0.57 -0.4,-0.83 -0.6,-0.82 -1.2,-1.79 -1.8,-2.89 -0.67,-0.58 -1.38,-1.04 -2.13,-1.33 -0.82,-0.33 -1.72,-0.5 -2.7,-0.5l-131.84 0c-0.98,0 -1.88,0.17 -2.7,0.5 -0.84,0.33 -1.63,0.84 -2.36,1.53 -0.73,0.68 -1.27,1.4 -1.61,2.15 -0.33,0.73 -0.5,1.52 -0.5,2.38l0 188.16c0,9.1 -1.66,17.49 -4.98,25.16 -3.32,7.68 -8.28,14.6 -14.89,20.77 -6.59,6.15 -13.9,10.78 -21.93,13.87 -8.02,3.08 -16.73,4.63 -26.11,4.63 -9.7,0 -18.63,-1.55 -26.8,-4.63 -8.17,-3.08 -15.57,-7.71 -22.17,-13.87 -6.6,-6.17 -11.57,-13.09 -14.88,-20.77 -3.32,-7.67 -4.98,-16.06 -4.98,-25.16l0 -478.94c0,-17.07 6.6,-32.36 19.79,-45.86l0.07 -0.06c6.6,-6.17 14,-10.79 22.17,-13.88 8.17,-3.08 17.1,-4.62 26.8,-4.62 9.38,0 18.09,1.55 26.11,4.63 8.03,3.08 15.34,7.71 21.93,13.87l0.07 0.06c6.57,6.73 11.52,13.91 14.82,21.56 3.32,7.67 4.98,15.77 4.98,24.3l0 163.35c0,0.86 0.17,1.66 0.5,2.39 0.34,0.75 0.88,1.47 1.61,2.15 0.72,0.69 1.51,1.2 2.36,1.53 0.82,0.33 1.72,0.5 2.7,0.5l131.84 0c0.98,0 1.88,-0.17 2.7,-0.5 0.75,-0.3 1.46,-0.74 2.13,-1.31 0.6,-1.1 1.2,-2.08 1.8,-2.92 0.18,-0.25 0.31,-0.52 0.4,-0.81 0.09,-0.3 0.14,-0.64 0.14,-1.03l0 -163.35zm8.61 -22.73c-3.09,7.14 -4.63,14.72 -4.63,22.73l0 163.35c0,0.75 -0.11,1.48 -0.33,2.18 -0.21,0.71 -0.53,1.37 -0.96,1.97 -0.57,0.8 -1.14,1.72 -1.7,2.77l-0.15 0.28 -0.25 0.23c-1.1,1.04 -2.3,1.81 -3.59,2.32 -1.31,0.53 -2.7,0.79 -4.17,0.79l-131.84 0c-1.47,0 -2.86,-0.26 -4.18,-0.79 -1.29,-0.51 -2.48,-1.28 -3.58,-2.31 -1.11,-1.03 -1.95,-2.17 -2.52,-3.4 -0.58,-1.27 -0.87,-2.62 -0.87,-4.04l0 -163.35c0,-8.01 -1.55,-15.59 -4.64,-22.73 -3.09,-7.17 -7.76,-13.95 -13.98,-20.32 -6.22,-5.8 -13.09,-10.16 -20.61,-13.04 -7.54,-2.9 -15.78,-4.35 -24.7,-4.35 -9.23,0 -17.7,1.45 -25.4,4.36 -7.67,2.89 -14.62,7.23 -20.83,13.03 -12.42,12.71 -18.62,27.07 -18.62,43.05l0 478.94c0,8.58 1.54,16.45 4.63,23.59 3.09,7.15 7.75,13.63 13.96,19.44 6.21,5.8 13.17,10.16 20.86,13.06 7.7,2.91 16.17,4.36 25.4,4.36 8.92,0 17.16,-1.45 24.7,-4.35 7.53,-2.9 14.41,-7.26 20.64,-13.07 6.21,-5.81 10.86,-12.29 13.95,-19.44 3.09,-7.15 4.64,-15.01 4.64,-23.59l0 -188.16c0,-1.41 0.29,-2.75 0.87,-4.02 0.57,-1.24 1.41,-2.38 2.52,-3.41 1.09,-1.02 2.29,-1.79 3.58,-2.31 1.32,-0.53 2.71,-0.8 4.18,-0.8l131.84 0c1.47,0 2.86,0.27 4.17,0.8 1.3,0.52 2.5,1.29 3.59,2.31l0.24 0.22 0.16 0.3c0.56,1.05 1.13,1.98 1.7,2.77 0.42,0.6 0.74,1.25 0.96,1.96 0.22,0.7 0.33,1.43 0.33,2.18l0 188.16c0,8.58 1.54,16.45 4.63,23.59 3.1,7.15 7.75,13.63 13.96,19.44 6.22,5.81 13.11,10.17 20.64,13.07 7.54,2.9 15.77,4.35 24.7,4.35 8.93,0 17.16,-1.45 24.7,-4.35 7.53,-2.9 14.42,-7.26 20.64,-13.07l0.07 -0.06c6.49,-5.51 11.35,-11.84 14.58,-18.98 3.24,-7.15 4.86,-15.14 4.86,-23.99l0 -478.94c0,-8.27 -1.62,-15.98 -4.86,-23.13 -3.24,-7.17 -8.13,-13.8 -14.65,-19.89 -6.22,-5.82 -13.11,-10.17 -20.64,-13.07 -7.54,-2.9 -15.77,-4.35 -24.7,-4.35 -8.93,0 -17.16,1.44 -24.7,4.35 -7.52,2.88 -14.39,7.24 -20.61,13.04 -6.23,6.37 -10.89,13.15 -13.99,20.32z"/>
   <path class="fil2" d="M301.24 64.43c0,-8.53 1.66,-16.63 4.98,-24.31 3.3,-7.64 8.24,-14.83 14.82,-21.55l0.07 -0.07c6.59,-6.16 13.9,-10.78 21.93,-13.87 8.02,-3.08 16.73,-4.63 26.12,-4.63 9.38,0 18.08,1.55 26.11,4.63 8.03,3.09 15.34,7.71 21.93,13.87 6.91,6.45 12.1,13.51 15.57,21.16 3.47,7.67 5.21,15.93 5.21,24.77l0 478.94c0,9.4 -1.74,17.94 -5.21,25.62 -3.48,7.66 -8.68,14.45 -15.61,20.34 -6.58,6.14 -13.88,10.75 -21.89,13.83 -8.03,3.09 -16.73,4.63 -26.11,4.63 -9.39,0 -18.1,-1.54 -26.12,-4.63 -8.03,-3.09 -15.34,-7.71 -21.93,-13.87 -6.61,-6.17 -11.57,-13.09 -14.89,-20.77 -3.32,-7.66 -4.98,-16.06 -4.98,-25.15l0 -188.16c0,-0.38 -0.04,-0.73 -0.14,-1.02 -0.08,-0.29 -0.22,-0.56 -0.4,-0.82 -0.6,-0.83 -1.19,-1.8 -1.79,-2.9 -0.68,-0.58 -1.39,-1.03 -2.14,-1.33 -0.82,-0.33 -1.72,-0.49 -2.69,-0.49l-131.85 0c-0.98,0 -1.87,0.16 -2.7,0.49 -0.84,0.34 -1.62,0.85 -2.36,1.54 -0.72,0.67 -1.26,1.39 -1.61,2.15 -0.33,0.72 -0.5,1.52 -0.5,2.38l0 188.16c0,9.09 -1.66,17.48 -4.98,25.15 -3.31,7.68 -8.28,14.6 -14.88,20.77 -6.59,6.16 -13.91,10.78 -21.94,13.87 -8.02,3.09 -16.73,4.63 -26.11,4.63 -9.69,0 -18.63,-1.54 -26.79,-4.62 -8.18,-3.09 -15.57,-7.71 -22.17,-13.88 -6.61,-6.17 -11.57,-13.09 -14.89,-20.77 -3.32,-7.67 -4.98,-16.06 -4.98,-25.15l0 -478.94c0,-17.08 6.6,-32.37 19.8,-45.86l0.07 -0.07c6.6,-6.16 13.99,-10.79 22.17,-13.88 8.16,-3.07 17.1,-4.62 26.79,-4.62 9.39,0 18.09,1.55 26.11,4.63 8.03,3.09 15.35,7.71 21.94,13.87l0.06 0.07c6.58,6.72 11.52,13.91 14.82,21.55 3.32,7.67 4.98,15.78 4.98,24.31l0 163.34c0,0.87 0.17,1.66 0.5,2.39 0.35,0.75 0.89,1.47 1.61,2.15 0.72,0.68 1.51,1.2 2.36,1.54 0.83,0.33 1.72,0.49 2.7,0.49l131.85 0c0.97,0 1.87,-0.16 2.69,-0.5 0.76,-0.3 1.47,-0.74 2.13,-1.31 0.6,-1.1 1.2,-2.08 1.8,-2.91 0.18,-0.26 0.32,-0.53 0.41,-0.82 0.09,-0.29 0.13,-0.64 0.13,-1.03l0 -163.34zm8.62 -22.74c-3.1,7.15 -4.64,14.72 -4.64,22.74l0 163.34c0,0.75 -0.11,1.48 -0.32,2.19 -0.22,0.71 -0.54,1.36 -0.97,1.96 -0.57,0.8 -1.14,1.73 -1.7,2.78l-0.15 0.28 -0.24 0.23c-1.11,1.03 -2.31,1.8 -3.59,2.32 -1.32,0.53 -2.71,0.79 -4.17,0.79l-131.85 0c-1.47,0 -2.86,-0.26 -4.17,-0.79 -1.29,-0.52 -2.49,-1.29 -3.59,-2.32 -1.11,-1.03 -1.95,-2.17 -2.51,-3.4 -0.59,-1.27 -0.87,-2.61 -0.87,-4.04l0 -163.34c0,-8.02 -1.55,-15.59 -4.64,-22.74 -3.1,-7.16 -7.77,-13.94 -13.99,-20.32 -6.22,-5.8 -13.09,-10.15 -20.61,-13.04 -7.54,-2.9 -15.78,-4.35 -24.7,-4.35 -9.23,0 -17.69,1.45 -25.4,4.36 -7.67,2.89 -14.62,7.23 -20.83,13.03 -12.41,12.72 -18.62,27.07 -18.62,43.06l0 478.94c0,8.57 1.55,16.44 4.63,23.59 3.1,7.15 7.75,13.63 13.96,19.43 6.22,5.8 13.17,10.16 20.86,13.06 7.71,2.91 16.17,4.36 25.4,4.36 8.92,0 17.16,-1.45 24.7,-4.35 7.53,-2.89 14.42,-7.25 20.64,-13.07 6.21,-5.8 10.87,-12.28 13.96,-19.43 3.09,-7.15 4.64,-15.02 4.64,-23.59l0 -188.16c0,-1.42 0.28,-2.76 0.87,-4.03 0.56,-1.23 1.4,-2.38 2.51,-3.41 1.09,-1.02 2.29,-1.79 3.59,-2.31 1.31,-0.53 2.7,-0.79 4.17,-0.79l131.85 0c1.46,0 2.85,0.26 4.17,0.79 1.29,0.52 2.49,1.29 3.59,2.31l0.23 0.22 0.16 0.3c0.56,1.05 1.13,1.98 1.7,2.78 0.43,0.59 0.75,1.25 0.96,1.95 0.22,0.7 0.33,1.43 0.33,2.19l0 188.16c0,8.57 1.54,16.44 4.64,23.59 3.09,7.15 7.74,13.63 13.95,19.43 6.23,5.82 13.11,10.18 20.64,13.07 7.54,2.9 15.78,4.35 24.71,4.35 8.92,0 17.16,-1.45 24.69,-4.35 7.54,-2.89 14.42,-7.25 20.65,-13.07l0.07 -0.06c6.48,-5.51 11.34,-11.84 14.58,-18.98 3.23,-7.15 4.85,-15.14 4.85,-23.98l0 -478.94c0,-8.28 -1.62,-15.99 -4.85,-23.13 -3.25,-7.17 -8.14,-13.81 -14.65,-19.9 -6.23,-5.81 -13.11,-10.17 -20.65,-13.07 -7.53,-2.9 -15.77,-4.35 -24.69,-4.35 -8.93,0 -17.17,1.45 -24.71,4.35 -7.52,2.89 -14.39,7.24 -20.61,13.04 -6.22,6.38 -10.89,13.15 -13.98,20.32z"/>
  </g>
 </g>
</svg>
